HIERARCHY
ROOT Hips
{
	OFFSET 0.00000 0.00000 0.00000
	CHANNELS 6 Xposition Yposition Zposition Zrotation Yrotation Xrotation 
	JOINT LHipJoint
	{
		OFFSET 0 0 0
		CHANNELS 3 Zrotation Yrotation Xrotation
		JOINT LeftHip
		{
			OFFSET 1.26600 -1.82114 0.91038
			CHANNELS 3 Zrotation Yrotation Xrotation
			JOINT LeftKnee
			{
				OFFSET 2.50076 -6.87080 0.00000
				CHANNELS 3 Zrotation Yrotation Xrotation
				JOINT LeftAnkle
				{
					OFFSET 2.57364 -7.07102 0.00000
					CHANNELS 3 Zrotation Yrotation Xrotation
					JOINT LeftToe
					{
						OFFSET 0.13572 -0.37290 1.97004
						CHANNELS 3 Zrotation Yrotation Xrotation
						End Site
						{
							OFFSET 0.00000 -0.00000 1.01383
						}
					}
				}
			}
		}
	}
	JOINT RHipJoint
	{
		OFFSET 0 0 0
		CHANNELS 3 Zrotation Yrotation Xrotation
		JOINT RightHip
		{
			OFFSET -1.20803 -1.82114 0.91038
			CHANNELS 3 Zrotation Yrotation Xrotation
			JOINT RightKnee
			{
				OFFSET -2.54916 -7.00377 0.00000
				CHANNELS 3 Zrotation Yrotation Xrotation
				JOINT RightAnkle
				{
					OFFSET -2.56374 -7.04382 0.00000
					CHANNELS 3 Zrotation Yrotation Xrotation
					JOINT RightToe
					{
						OFFSET -0.23520 -0.64621 2.09921
						CHANNELS 3 Zrotation Yrotation Xrotation
						End Site
						{
							OFFSET -0.00000 -0.00000 1.10065
						}
					}
				}
			}
		}
	}
	JOINT lowerback
	{
		OFFSET 0 0 0
		CHANNELS 3 Zrotation Yrotation Xrotation
		JOINT Chest
		{
			OFFSET 0.05492 2.10797 -0.12074
			CHANNELS 3 Zrotation Yrotation Xrotation
			JOINT Chest2
			{
				OFFSET 0.04577 2.11592 -0.04483
				CHANNELS 3 Zrotation Yrotation Xrotation
				JOINT lowerneck
				{
					OFFSET 0 0 0
					CHANNELS 3 Zrotation Yrotation Xrotation
					JOINT Neck
					{
						OFFSET -0.10759 1.80167 0.15770
						CHANNELS 3 Zrotation Yrotation Xrotation
						JOINT Head
						{
							OFFSET 0.09237 1.77509 -0.40848
							CHANNELS 3 Zrotation Yrotation Xrotation
							End Site
							{
								OFFSET 0.03805 1.84093 -0.15754
							}
						}
					}
				}
				JOINT LeftCollar
				{
					OFFSET 0 0 0
					CHANNELS 3 Zrotation Yrotation Xrotation
					JOINT LeftShoulder
					{
						OFFSET 3.42372 1.09575 -0.28209
CHANNELS 3 Zrotation Xrotation Yrotation
						JOINT LeftElbow
						{
OFFSET 0 -4.956810 0.000000
CHANNELS 3 Zrotation Xrotation Yrotation
							JOINT LeftWrist
							{
OFFSET 0 -3.409150 0.000000
CHANNELS 3 Zrotation Xrotation Yrotation
								JOINT lhand
								{
									OFFSET 0 0 0
CHANNELS 3 Zrotation Xrotation Yrotation
									JOINT LFingers
									{
OFFSET 0 -0.616400 0.000000
CHANNELS 3 Zrotation Xrotation Yrotation
										End Site
										{
OFFSET 0 -0.496960 0.000000
										}
									}
								}
								JOINT LThumb
								{
OFFSET 0 0.000000 0.000000
CHANNELS 3 Zrotation Xrotation Yrotation
									End Site
									{
OFFSET 0 -0.504550 0.504550
									}
								}
							}
						}
					}
				}
				JOINT RightCollar
				{
					OFFSET 0 0 0
					CHANNELS 3 Zrotation Yrotation Xrotation
					JOINT RightShoulder
					{
						OFFSET -3.24731 1.15872 -0.32221
CHANNELS 3 Zrotation Xrotation Yrotation
						JOINT RightElbow
						{
OFFSET 0 -5.352000 0.000000
CHANNELS 3 Zrotation Xrotation Yrotation
							JOINT RightWrist
							{
OFFSET 0 -3.437210 -0.000000
CHANNELS 3 Zrotation Xrotation Yrotation
								JOINT rhand
								{
									OFFSET 0 0 0
CHANNELS 3 Zrotation Xrotation Yrotation
									JOINT RFingers
									{
OFFSET 0 -0.720090 0.000000
CHANNELS 3 Zrotation Xrotation Yrotation
										End Site
										{
OFFSET 0 -0.580560 0.000000
										}
									}
								}
								JOINT RThumb
								{
OFFSET 0 0.000000 0.000000
CHANNELS 3 Zrotation Xrotation Yrotation
									End Site
									{
OFFSET 0 -0.589420 0.589420
									}
								}
							}
						}
					}
				}
			}
		}
	}
}
MOTION
Frames: 6
Frame Time: 0.008333333333333333
18.304037 20.822156 -1.059905 -8.980400 -321.465482 713.022801 0.000000 0.000000 0.000000 -6.499276 -26.438416 -6.916842 3.313381 11.184215 32.905602 -2.104412 -26.457206 -0.308489 0.039888 1.287054 3.539064 0.000000 0.000000 0.000000 26.799872 6.414653 -3.349097 -1.840780 -8.525789 24.323129 1.129766 23.638532 -7.198182 -1.778218 -8.383919 23.888732 4.471297 3.093225 5.113620 2.837308 4.370096 2.724837 0.206979 2.228581 0.057491 -11.221975 -4.999666 -11.347019 8.205868 -6.678967 39.762314 4.666961 -3.075966 17.131788 0.000000 0.000000 0.000000 -3.721217 7.531021 -8.407889 10.659474 -17.764470 1.670565 27.830198 14.467992 -18.505709 0.000000 0.000000 0.000000 -7.125000 0.000000 0.000000 -0.311094 50.710241 0.044050 0.000000 0.000000 0.000000 -7.308286 -1.602165 20.690660 -17.694819 -27.764607 -4.406151 -17.652191 -15.496823 -12.477769 0.000000 0.000000 0.000000 7.125000 0.000000 0.000000 6.656364 16.961622 4.455450
18.589206 20.777983 -1.192934 -6.100291 -329.295462 715.634503 0.000000 0.000000 0.000000 -8.291992 -19.905311 -5.093856 2.538670 9.907764 28.678755 -2.453285 -27.729894 1.613745 0.692282 5.318192 14.818639 0.000000 0.000000 0.000000 23.732710 9.980812 -4.796455 -2.310702 -9.485172 27.325159 1.896162 28.392026 -6.594069 -1.764740 -8.357114 23.804557 2.309744 3.226243 5.027339 2.392395 4.439047 2.499539 0.936233 2.235156 -0.256614 -11.039407 -4.631400 -11.479862 7.767115 -6.151467 39.625977 4.495507 -2.937997 16.969116 0.000000 0.000000 0.000000 -3.035807 8.275686 -9.924840 11.413257 -18.918925 1.907739 24.345698 12.318616 -19.663873 0.000000 0.000000 0.000000 -7.125000 0.000000 0.000000 -4.070630 51.351605 0.636978 0.000000 0.000000 0.000000 -8.403445 -2.771650 20.295557 -16.987914 -26.841788 -4.081941 -18.151993 -14.013360 -11.526016 0.000000 0.000000 0.000000 7.125000 0.000000 0.000000 6.297842 17.910901 4.080588
18.860882 20.747083 -1.329860 -3.317328 -333.767970 717.164730 0.000000 0.000000 0.000000 -11.777175 -12.553563 -4.662565 2.066351 9.002692 25.803973 -1.960481 -26.284189 -1.960981 0.873386 5.958020 16.662744 0.000000 0.000000 0.000000 20.327861 13.167499 -5.002634 -2.616597 -10.046982 29.128882 2.167662 29.777156 -6.326518 -1.767551 -8.362281 23.821194 -0.322711 2.181296 5.235991 1.765732 2.919873 2.516080 1.829569 1.455871 -0.454360 -10.145521 -4.271439 -11.546008 6.596469 -5.554022 39.210196 3.856922 -2.756036 16.569677 0.000000 0.000000 0.000000 -1.157298 7.654608 -11.771381 11.801189 -19.505769 2.035422 20.257912 10.877936 -20.258751 0.000000 0.000000 0.000000 -7.125000 0.000000 0.000000 -8.311032 51.270221 1.290093 0.000000 0.000000 0.000000 -8.065654 -4.149323 17.229607 -16.527153 -26.229994 -3.876139 -17.713479 -13.433139 -11.976564 0.000000 0.000000 0.000000 7.125000 0.000000 0.000000 6.608597 17.476475 4.347964
19.126465 20.777438 -1.502906 -1.302142 -335.961449 718.613032 0.000000 0.000000 0.000000 -14.601989 -10.598807 -4.480773 1.720950 8.258772 23.502904 -1.986569 -26.317023 -1.678054 0.636528 5.104330 14.206397 0.000000 0.000000 0.000000 17.078315 13.863711 -6.810568 -2.873803 -10.487858 30.571555 2.430767 30.196351 -4.574598 -2.203290 -9.276879 26.665587 -2.206294 0.828037 5.503994 1.397156 1.015277 1.822461 2.609569 0.507621 -1.272646 -11.197038 -4.190554 -10.792102 7.565059 -5.724672 39.507530 4.472442 -2.916507 16.654962 0.000000 0.000000 0.000000 1.407060 7.059850 -13.465484 12.137619 -20.010689 2.149172 19.093718 10.123200 -20.250789 0.000000 0.000000 0.000000 -7.125000 0.000000 0.000000 -9.453698 51.065623 1.423694 0.000000 0.000000 0.000000 -7.912882 -4.092272 14.464021 -16.303178 -25.929990 -3.777579 -19.470041 -14.447298 -12.570265 0.000000 0.000000 0.000000 7.125000 0.000000 0.000000 5.397253 16.711183 3.633385
19.366962 20.797615 -1.698928 -1.070790 -340.569581 719.101322 0.000000 0.000000 0.000000 -15.676113 -8.915926 -4.929825 1.707813 8.228888 23.411479 -1.527712 -24.550770 -4.080288 0.464285 4.370589 12.121589 0.000000 0.000000 0.000000 15.979140 12.668136 -9.895413 -3.247602 -11.085153 32.567944 2.040346 30.113659 -7.966180 -0.437138 -4.173456 11.575651 -2.347871 0.723997 5.306932 1.659076 0.876283 2.093522 2.972776 0.428445 -0.881356 -11.443121 -4.263228 -11.037841 7.564767 -5.819434 38.422516 4.428424 -3.003902 16.157773 0.000000 0.000000 0.000000 3.835227 4.318040 -14.610508 13.203018 -21.583962 2.527500 20.925468 9.192178 -20.224105 0.000000 0.000000 0.000000 -7.125000 0.000000 0.000000 -7.641391 51.347525 1.201542 0.000000 0.000000 0.000000 -8.086821 -3.285503 13.552471 -17.126582 -27.024386 -4.144708 -17.598781 -13.782154 -10.853871 0.000000 0.000000 0.000000 7.125000 0.000000 0.000000 6.683587 18.649601 4.223238
19.550714 20.802986 -1.878799 -0.609843 -346.463788 719.081270 0.000000 0.000000 0.000000 -16.787209 -6.380449 -4.786385 1.643820 8.081108 22.960683 -1.057539 -22.051866 -5.760963 0.476999 4.428662 12.285997 0.000000 0.000000 0.000000 16.170211 6.906763 -14.593945 -4.235194 -12.466884 37.404290 0.255601 23.121780 -14.413133 -0.000148 0.067887 -0.186406 -2.812669 1.093510 5.674256 1.845733 1.338690 2.524007 3.397752 0.647689 -0.688339 -10.467818 -3.893316 -11.379430 5.894644 -4.913493 37.585290 3.612051 -2.703277 15.583348 0.000000 0.000000 0.000000 6.128539 2.110432 -14.020884 15.238294 -24.476971 3.324061 23.168262 2.308394 -16.129668 0.000000 0.000000 0.000000 -7.125000 0.000000 0.000000 -4.397166 47.393093 0.260151 0.000000 0.000000 0.000000 -8.040368 -3.861286 13.401161 -15.993037 -25.511145 -3.642987 -16.733390 -12.875712 -11.574721 0.000000 0.000000 0.000000 7.125000 0.000000 0.000000 7.291240 17.965547 4.725200
